<?xml version="1.0" encoding="utf-8"?>
<!-- Generator: Adobe Illustrator 23.0.3, SVG Export Plug-In . SVG Version: 6.00 Build 0)  -->
<svg version="1.1" id="Layer_1" xmlns="http://www.w3.org/2000/svg" xmlns:xlink="http://www.w3.org/1999/xlink" x="0px" y="0px"
	 viewBox="0 0 37 37" style="enable-background:new 0 0 37 37;" xml:space="preserve">
<style type="text/css">
	.st0{fill:none;}
</style>
<g>
	<polygon class="st0" points="22.7,26.6 31.3,18.5 22.7,10.4 	"/>
	<path d="M32.9,17.3l-9.6-9c-0.3-0.3-0.7-0.5-1.2-0.5c-0.4,0-0.8,0.2-1.1,0.5c-0.3,0.3-0.5,0.7-0.5,1.1v8H4.5v2h16.2v8.1
		c0,0.9,0.7,1.6,1.6,1.6c0.4,0,0.8-0.2,1.1-0.4l9.6-9c0.3-0.3,0.5-0.7,0.5-1.1C33.5,18.1,33.3,17.7,32.9,17.3z M22.7,26.6V10.4
		l8.6,8.1L22.7,26.6z"/>
</g>
</svg>
