<?xml version="1.0" encoding="utf-8"?>
<!-- Generator: Adobe Illustrator 23.0.3, SVG Export Plug-In . SVG Version: 6.00 Build 0)  -->
<svg version="1.1" id="Layer_1" xmlns="http://www.w3.org/2000/svg" xmlns:xlink="http://www.w3.org/1999/xlink" x="0px" y="0px"
	 viewBox="0 0 200 200" style="enable-background:new 0 0 200 200;" xml:space="preserve">
<style type="text/css">
	.st0{fill:#FFEFE1;}
	.st1{fill:none;}
</style>
<path id="Path_1810" class="st0" d="M90.9,22.1c44.5,0,80.5,36,80.5,80.5s-36,80.5-80.5,80.5s-80.5-36-80.5-80.5
	S46.4,22.1,90.9,22.1z"/>
<g>
	<path class="st1" d="M30.8,75.9c13.1-1.7,25.5-7.8,35-17.3c9.4-9.4,15.5-21.8,17.2-34.9l0.1-1.1L29.7,76L30.8,75.9z"/>
	<path class="st1" d="M108,63c-1,0-2,0.4-2.8,1.2L78.4,91c-9.8,9.8-9.8,25.7,0,35.4c4.7,4.7,11,7.3,17.7,7.3c0,0,0,0,0,0
		c6.7,0,13-2.6,17.7-7.3l21.4-21.4l-2.2-2.2c-1.9-1.9-4.9-1.9-6.8,0l-13.6,13.6l-0.1-0.1l-2.6-2.6c-2.8-2.8-6.6-4.4-10.7-4.4
		c-4,0-7.8,1.6-10.7,4.4l-4.3,4.3l-1.8-1.8l0.1-0.1l4.2-4.2c3.3-3.3,7.8-5.2,12.5-5.2s9.1,1.8,12.5,5.2l0.8,0.8l25.8-25.8
		c0.7-0.8,1.2-1.8,1.2-2.8c0-1.1-0.4-2.1-1.2-2.8c-1.5-1.5-4-1.5-5.5-0.1l-18.7,18.7l-1.9-1.8l24-23.9c1.5-1.5,1.5-4.1,0-5.6
		c-0.8-0.8-1.8-1.2-2.8-1.2c-1.1,0-2.1,0.4-2.8,1.2l-23.9,23.9l-1.8-1.8l0.1-0.1L123.6,72c1.6-1.6,1.5-4.1,0-5.7
		c-1.6-1.5-4.1-1.5-5.6,0.1L99.3,85l-1.8-1.8l13.4-13.4c1.6-1.6,1.6-4.1,0-5.6C110.1,63.4,109.1,63,108,63z"/>
	<path class="st1" d="M125.8,20.5c-13-3.4-26.7-3.5-39.7-0.3l-0.3,0.1l0,0.3c-1.1,14.6-7.2,28.4-17.3,39C58,70.4,44,77.1,29,78.5
		l-1.6,0.2L27.3,79c-5.1,20.6-1.9,42,8.9,60.3c10.9,18.3,28.2,31.4,48.7,36.8c6.7,1.8,13.6,2.7,20.5,2.7c14.1,0,28.1-3.8,40.5-11
		c18.6-10.8,31.8-28.2,37.2-49C194.4,75.9,168.7,31.8,125.8,20.5z M140.2,88.7l-10,10l0.6,0.1c1.5,0.2,2.9,1,4,2.1l4.1,4l-0.1,0.1
		l-23.2,23.2c-5.2,5.2-12.1,8.1-19.5,8.1c-7.4,0-14.3-2.9-19.5-8.1c-10.8-10.8-10.8-28.3,0-39.1l26.8-26.8c2.6-2.6,6.7-2.6,9.3,0
		c0.9,0.9,1.5,2,1.7,3.2l0.1,0.6l1.5-1.5c1.2-1.2,2.9-1.9,4.6-2c0,0,0,0,0,0c1.7,0,3.4,0.7,4.6,1.9c0.9,0.9,1.5,2,1.8,3.2l0.1,0.6
		l1.5-1.5c1.2-1.2,2.9-1.9,4.6-1.9c1.8,0,3.4,0.7,4.6,1.9c2.5,2.5,2.5,6.7,0,9.2l-1.6,1.6l0.6,0.1c1.2,0.3,2.3,0.9,3.2,1.7
		c1.2,1.2,1.9,2.9,1.9,4.6C142.1,85.8,141.5,87.5,140.2,88.7z"/>
	<path d="M137.1,77.7l-0.6-0.1l1.6-1.6c2.5-2.5,2.5-6.7,0-9.2c-1.2-1.2-2.9-1.9-4.6-1.9c-1.7,0-3.4,0.7-4.6,1.9l-1.5,1.5l-0.1-0.6
		c-0.3-1.2-0.9-2.3-1.8-3.2c-1.2-1.2-2.9-1.9-4.6-1.9c0,0,0,0,0,0c-1.8,0-3.4,0.7-4.6,2l-1.5,1.5l-0.1-0.6c-0.3-1.2-0.9-2.3-1.7-3.2
		c-2.6-2.6-6.7-2.6-9.3,0L76.6,89.1c-10.8,10.8-10.8,28.3,0,39.1c5.2,5.2,12.1,8.1,19.5,8.1c7.4,0,14.3-2.9,19.5-8.1l23.2-23.2
		l0.1-0.1l-4.1-4c-1.1-1.1-2.5-1.8-4-2.1l-0.6-0.1l10-10c1.2-1.2,1.9-2.9,1.9-4.6c0-1.8-0.7-3.4-1.9-4.6
		C139.4,78.6,138.3,78,137.1,77.7z M110.9,69.8L97.4,83.2l1.8,1.8l18.6-18.6c1.5-1.6,4.1-1.6,5.6-0.1c1.6,1.5,1.6,4.1,0,5.7
		L105,90.6l-0.1,0.1l1.8,1.8l23.9-23.9c0.8-0.7,1.8-1.2,2.8-1.2c1.1,0,2.1,0.4,2.8,1.2c1.5,1.5,1.5,4.1,0,5.6l-24,23.9l1.9,1.8
		l18.7-18.7c1.6-1.5,4-1.4,5.5,0.1c0.8,0.8,1.2,1.8,1.2,2.8c0,1.1-0.4,2.1-1.2,2.8l-25.8,25.8l-0.8-0.8c-3.3-3.3-7.8-5.2-12.5-5.2
		s-9.1,1.8-12.5,5.2l-4.2,4.2l-0.1,0.1l1.8,1.8l4.3-4.3c2.8-2.8,6.6-4.4,10.7-4.4c4,0,7.8,1.6,10.7,4.4l2.6,2.6l0.1,0.1l13.6-13.6
		c1.9-1.9,4.9-1.9,6.8,0l2.2,2.2l-21.4,21.4c-4.7,4.7-11,7.3-17.7,7.3c0,0,0,0,0,0c-6.7,0-13-2.6-17.7-7.3c-9.8-9.8-9.8-25.7,0-35.4
		l26.8-26.8C106,63.4,107,63,108,63c1,0,2,0.4,2.8,1.2C112.4,65.7,112.4,68.2,110.9,69.8z"/>
	<path d="M176.9,56.5c-11.2-19.1-29.1-32.8-50.5-38.4c-6.9-1.8-14-2.7-21-2.7c-7.1,0-14.2,0.9-21.1,2.7L84,18.2L25.3,76.9l-0.1,0.3
		c-11.6,44.2,14.9,89.6,59.1,101.2c6.9,1.8,14,2.7,21,2.7c37.6,0,70.6-25.4,80.2-61.8C191.1,98,188.1,75.7,176.9,56.5z M83,23.7
		c-1.7,13.1-7.8,25.5-17.2,34.9c-9.5,9.5-21.9,15.6-35,17.3L29.7,76l53.4-53.4L83,23.7z M145.9,167.7c-12.4,7.2-26.3,11-40.5,11
		c-6.9,0-13.8-0.9-20.5-2.7c-20.6-5.4-37.8-18.5-48.7-36.8C25.4,121,22.2,99.5,27.3,79l0.1-0.3l1.6-0.2c15-1.4,29-8.2,39.4-19
		c10.1-10.5,16.3-24.4,17.3-39l0-0.3l0.3-0.1c13-3.2,26.8-3.1,39.7,0.3c42.9,11.3,68.6,55.3,57.3,98.2
		C177.7,139.5,164.5,156.9,145.9,167.7z"/>
</g>
</svg>
