<?xml version="1.0" encoding="utf-8"?>
<!-- Generator: Adobe Illustrator 23.0.3, SVG Export Plug-In . SVG Version: 6.00 Build 0)  -->
<svg version="1.1" id="Layer_1" xmlns="http://www.w3.org/2000/svg" xmlns:xlink="http://www.w3.org/1999/xlink" x="0px" y="0px"
	 viewBox="0 0 200 200" style="enable-background:new 0 0 200 200;" xml:space="preserve">
<style type="text/css">
	.st0{fill:#FFEFE1;}
	.st1{fill:none;}
</style>
<path id="Path_1810" class="st0" d="M85.2,33.5c44.5,0,80.5,36,80.5,80.5s-36,80.5-80.5,80.5S4.7,158.5,4.7,114S40.8,33.5,85.2,33.5
	z"/>
<path class="st1" d="M102.3,115.6c0,2.7,2.2,4.8,4.8,4.8c2.7,0,4.8-2.2,4.8-4.8v0h0v-8.1h-9.7V115.6z"/>
<path class="st1" d="M83.4,97.8c-2.7-0.1-4.9,1.9-5.1,4.6c0,0.5,0,8.1,0,13.2c0,2.7,2.2,4.8,4.8,4.8c2.7,0,4.8-2.2,4.8-4.8v-8.1v-5
	C88,100,86,97.9,83.4,97.8z"/>
<path class="st1" d="M90.3,115.6c0,2.7,2.2,4.8,4.8,4.8c0,0,0,0,0,0c1.3,0,2.5-0.5,3.4-1.4c0.9-0.9,1.4-2.1,1.4-3.4v-8.1h-9.7V115.6
	z"/>
<path class="st1" d="M106.9,58.9c-1.8-0.5-3.7-0.7-5.6-0.7c0,0-0.1,0-0.2,0c-12.5,0-22.7,10.1-22.8,22.6v16.6c1.4-1.2,3.2-2,5.2-1.9
	c2.1,0.1,3.9,1.1,5.2,2.6c1.2-2.8,4-4.8,7.3-4.8c0,0,0,0,0,0l9,0c-4.7-2.8-7.9-8-7.9-13.9v-9h2.3v9c0,7.7,6.2,13.9,13.9,13.9l0,2.3
	l-17.3,0c0,0,0,0,0,0c-3.1,0-5.7,2.5-5.7,5.7v1.3v2.7h33.6V80.8C123.9,70.3,116.6,61.5,106.9,58.9z"/>
<path class="st1" d="M114.3,115.6C114.3,115.6,114.3,115.6,114.3,115.6l0,19c0,2.6,2.2,4.8,4.8,4.8c0,0,0,0,0.1,0
	c1.3,0,2.5-0.5,3.4-1.5c0.9-0.9,1.4-2.1,1.4-3.4v-27h-9.7V115.6z"/>
<g>
	<path class="st1" d="M111.8,107.7h-9.4v7.9c0,2.6,2.1,4.7,4.7,4.7c2.6,0,4.7-2.1,4.7-4.7L111.8,107.7z"/>
	<path class="st1" d="M123.8,80.8c-0.1-10.2-7-19.1-16.9-21.7c-1.8-0.5-3.7-0.7-5.6-0.7l-0.2,0c-12.4,0-22.6,10.1-22.6,22.5v16.3
		c1.4-1.2,3.2-1.8,5-1.7c2,0.1,3.8,1,5.1,2.5c1.3-2.9,4.2-4.7,7.3-4.7l8.6,0c-4.7-3-7.6-8.2-7.6-13.8v-9.1h2.5v9.1
		c0,7.6,6.2,13.8,13.8,13.8h0.1l0,2.5l-17.5,0c-3.1,0-5.6,2.5-5.6,5.6v3.9h33.3V80.8z"/>
	<path class="st1" d="M95.2,120.3c1.3,0,2.4-0.5,3.3-1.4c0.9-0.9,1.4-2.1,1.4-3.3v-7.9h-9.4v7.9C90.5,118.2,92.6,120.3,95.2,120.3z"
		/>
	<path class="st1" d="M78.5,115.6c0,2.6,2.1,4.7,4.7,4.7c2.6,0,4.7-2.1,4.7-4.7v-13c0-2.5-2-4.6-4.5-4.7c-0.1,0-0.1,0-0.2,0
		c-2.5,0-4.6,2-4.7,4.5C78.5,102.8,78.5,110.5,78.5,115.6z"/>
	<path class="st1" d="M119.1,139.3L119.1,139.3c1.3,0,2.5-0.5,3.4-1.4c0.9-0.9,1.4-2.1,1.3-3.3v-26.8h-9.4l0,27
		C114.4,137.2,116.5,139.3,119.1,139.3z"/>
	<path d="M101.3,55.8c-0.1,0-0.2,0-0.2,0c-6.6,0-12.8,2.6-17.6,7.2C78.7,67.7,76,74,76,80.8v21.5l0,0.1c0,0.6,0,3.2,0,13.2
		c0,4,3.3,7.3,7.3,7.3c2.4,0,4.6-1.2,6-3.2c1.4,2,3.6,3.2,6,3.2c2.4,0,4.6-1.2,6-3.2c1.4,2,3.6,3.2,6,3.2c1.7,0,3.4-0.6,4.7-1.7
		v13.5c0.1,4,3.3,7.2,7.3,7.2h0.1c1.9,0,3.8-0.8,5.1-2.2c1.4-1.4,2.1-3.2,2.1-5.1V80.8C126.3,67.1,115,55.8,101.3,55.8z
		 M107.1,120.3c-2.6,0-4.7-2.1-4.7-4.7v-7.9h9.4l0,7.9C111.8,118.2,109.7,120.3,107.1,120.3z M99.9,107.7v7.9c0,1.3-0.5,2.4-1.4,3.3
		c-0.9,0.9-2.1,1.4-3.3,1.4c-2.6,0-4.7-2.1-4.7-4.7v-7.9H99.9z M90.5,101.3c0-3.1,2.5-5.6,5.6-5.6l17.5,0l0-2.5h-0.1
		c-7.6,0-13.8-6.2-13.8-13.8v-9.1H97v9.1c0,5.5,2.9,10.8,7.6,13.8l-8.6,0c-3.1,0-6,1.8-7.3,4.7c-1.3-1.5-3.1-2.4-5.1-2.5
		c-1.9-0.1-3.6,0.5-5,1.7V80.8c0.1-12.4,10.2-22.5,22.6-22.5l0.2,0c1.9,0,3.8,0.3,5.6,0.7c9.9,2.6,16.8,11.6,16.9,21.7v24.3H90.5
		V101.3z M83.2,97.9c0.1,0,0.1,0,0.2,0c2.5,0.1,4.5,2.2,4.5,4.7v13c0,2.6-2.1,4.7-4.7,4.7c-2.6,0-4.7-2.1-4.7-4.7
		c0-5.1,0-12.8,0-13.2C78.6,99.9,80.7,97.9,83.2,97.9z M123.8,107.7v26.8c0,1.3-0.5,2.4-1.3,3.3c-0.9,0.9-2.1,1.4-3.3,1.4l-0.1,0
		c-2.6,0-4.7-2.1-4.7-4.6l0-27H123.8z"/>
</g>
<path class="st1" d="M179.2,79.2l-0.3,0c-14.6-1.1-28.4-7.2-39-17.3c-10.9-10.4-17.6-24.4-19-39.4l-0.2-1.6l-0.3-0.1
	c-20.6-5.1-42-1.9-60.3,8.9C41.9,40.5,28.8,57.8,23.4,78.3c-1.8,6.7-2.7,13.6-2.7,20.5c0,14.1,3.8,28.1,11,40.5
	c10.8,18.6,28.2,31.8,49,37.2c42.9,11.3,86.9-14.5,98.2-57.3c3.4-13,3.5-26.7,0.3-39.7L179.2,79.2z"/>
<path class="st1" d="M123.6,24.2c1.7,13.1,7.8,25.5,17.3,35c9.4,9.4,21.8,15.5,34.9,17.2l1.1,0.1l-53.4-53.4L123.6,24.2z"/>
<path d="M181.3,77.7l-0.1-0.3l-58.7-58.7l0,0l-0.3-0.1C78,7,32.6,33.5,21,77.7c-1.8,6.9-2.7,14-2.7,21c0,37.6,25.4,70.6,61.8,80.2
	c7,1.8,14.1,2.7,21.1,2.7c14.5,0,28.8-3.8,41.7-11.4c19.1-11.2,32.8-29.1,38.4-50.5c1.8-6.9,2.7-14,2.7-21
	C184,91.7,183.1,84.6,181.3,77.7z M178.9,119.2c-11.3,42.9-55.3,68.6-98.2,57.3c-20.7-5.5-38.1-18.7-49-37.2
	c-7.2-12.4-11-26.3-11-40.5c0-6.9,0.9-13.8,2.7-20.5c5.4-20.6,18.5-37.8,36.8-48.7c18.3-10.8,39.7-14,60.3-8.9l0.3,0.1l0.2,1.6
	c1.4,15,8.2,29,19,39.4c10.5,10.1,24.4,16.3,39,17.3l0.3,0l0.1,0.3C182.4,92.5,182.3,106.3,178.9,119.2z M175.8,76.4
	c-13.1-1.7-25.5-7.8-34.9-17.2c-9.5-9.5-15.6-21.9-17.3-35l-0.1-1.1l53.4,53.4L175.8,76.4z"/>
</svg>
